HIERARCHY
ROOT Root
{
  OFFSET 0.0 0.0 0.0
  CHANNELS 6 Xposition Yposition Zposition Zrotation Yrotation Xrotation
  JOINT Hips
  {
    OFFSET 0.0 100.0 0.0
    CHANNELS 6 Xposition Yposition Zposition Zrotation Yrotation Xrotation
    JOINT Spine1
    {
      OFFSET 5.003913 -0.037094 -0.013727
      CHANNELS 3 Zrotation Yrotation Xrotation
      JOINT Spine2
      {
        OFFSET 7.125363 -1e-06 0.0
        CHANNELS 3 Zrotation Yrotation Xrotation
        JOINT Chest
        {
          OFFSET 7.594027 1e-06 0.0
          CHANNELS 3 Zrotation Yrotation Xrotation
          JOINT Neck1
          {
            OFFSET 26.313086 -0.460272 -0.181672
            CHANNELS 3 Zrotation Yrotation Xrotation
            JOINT Neck2
            {
              OFFSET 8.045911 0.0 0.0
              CHANNELS 3 Zrotation Yrotation Xrotation
              JOINT Head
              {
                OFFSET 6.432774 0.0 0.0
                CHANNELS 3 Zrotation Yrotation Xrotation
                JOINT HeadEnd
                {
                  OFFSET 16.169773 0.06451 0.00362
                  CHANNELS 3 Zrotation Yrotation Xrotation
                }
                JOINT Jaw
                {
                  OFFSET 0.108741 3.12938 0.002639
                  CHANNELS 3 Zrotation Yrotation Xrotation
                }
                JOINT LeftEye
                {
                  OFFSET 4.45173 8.166359 3.206392
                  CHANNELS 3 Zrotation Yrotation Xrotation
                }
                JOINT RightEye
                {
                  OFFSET 4.436895 8.135758 -3.222429
                  CHANNELS 3 Zrotation Yrotation Xrotation
                }
              }
            }
          }
          JOINT LeftShoulder
          {
            OFFSET 23.218927 5.195579 1.621656
            CHANNELS 3 Zrotation Yrotation Xrotation
            JOINT LeftArm
            {
              OFFSET 15.902118 2e-06 -2e-06
              CHANNELS 3 Zrotation Yrotation Xrotation
              JOINT LeftForeArm
              {
                OFFSET 28.739307 0.0 -1e-06
                CHANNELS 3 Zrotation Yrotation Xrotation
                JOINT LeftHand
                {
                  OFFSET 27.093981 -4e-06 0.0
                  CHANNELS 3 Zrotation Yrotation Xrotation
                  JOINT LeftHandThumb1
                  {
                    OFFSET 2.276781 3.380274 0.83384
                    CHANNELS 3 Zrotation Yrotation Xrotation
                    JOINT LeftHandThumb2
                    {
                      OFFSET 4.705309 -1e-06 -1e-06
                      CHANNELS 3 Zrotation Yrotation Xrotation
                      JOINT LeftHandThumb3
                      {
                        OFFSET 2.798515 0.0 3e-06
                        CHANNELS 3 Zrotation Yrotation Xrotation
                        JOINT LeftHandThumbEnd
                        {
                          OFFSET 3.180793 4e-06 -4e-06
                          CHANNELS 3 Zrotation Yrotation Xrotation
                        }
                      }
                    }
                  }
                  JOINT LeftHandIndex1
                  {
                    OFFSET 3.247786 2.352677 0.137192
                    CHANNELS 3 Zrotation Yrotation Xrotation
                    JOINT LeftHandIndex2
                    {
                      OFFSET 6.367095 1e-06 0.0
                      CHANNELS 3 Zrotation Yrotation Xrotation
                      JOINT LeftHandIndex3
                      {
                        OFFSET 3.662364 0.0 0.0
                        CHANNELS 3 Zrotation Yrotation Xrotation
                        JOINT LeftHandIndex4
                        {
                          OFFSET 2.329242 4e-06 -4e-06
                          CHANNELS 3 Zrotation Yrotation Xrotation
                          JOINT LeftHandIndexEnd
                          {
                            OFFSET 2.767823 1e-06 0.0
                            CHANNELS 3 Zrotation Yrotation Xrotation
                          }
                        }
                      }
                    }
                  }
                  JOINT LeftHandMiddle1
                  {
                    OFFSET 3.163612 0.945023 -0.406112
                    CHANNELS 3 Zrotation Yrotation Xrotation
                    JOINT LeftHandMiddle2
                    {
                      OFFSET 6.276789 3e-06 0.0
                      CHANNELS 3 Zrotation Yrotation Xrotation
                      JOINT LeftHandMiddle3
                      {
                        OFFSET 4.35652 -1e-06 4e-06
                        CHANNELS 3 Zrotation Yrotation Xrotation
                        JOINT LeftHandMiddle4
                        {
                          OFFSET 2.996877 0.0 8e-06
                          CHANNELS 3 Zrotation Yrotation Xrotation
                          JOINT LeftHandMiddleEnd
                          {
                            OFFSET 2.323256 3e-06 -4e-06
                            CHANNELS 3 Zrotation Yrotation Xrotation
                          }
                        }
                      }
                    }
                  }
                  JOINT LeftHandRing1
                  {
                    OFFSET 2.882606 -0.309162 0.107445
                    CHANNELS 3 Zrotation Yrotation Xrotation
                    JOINT LeftHandRing2
                    {
                      OFFSET 6.033198 0.0 4e-06
                      CHANNELS 3 Zrotation Yrotation Xrotation
                      JOINT LeftHandRing3
                      {
                        OFFSET 4.350578 3e-06 0.0
                        CHANNELS 3 Zrotation Yrotation Xrotation
                        JOINT LeftHandRing4
                        {
                          OFFSET 2.651321 2e-06 -7e-06
                          CHANNELS 3 Zrotation Yrotation Xrotation
                          JOINT LeftHandRingEnd
                          {
                            OFFSET 1.937663 1e-06 -4e-06
                            CHANNELS 3 Zrotation Yrotation Xrotation
                          }
                        }
                      }
                    }
                  }
                  JOINT LeftHandPinky1
                  {
                    OFFSET 2.865315 -1.525436 0.575687
                    CHANNELS 3 Zrotation Yrotation Xrotation
                    JOINT LeftHandPinky2
                    {
                      OFFSET 5.54936 1e-06 -8e-06
                      CHANNELS 3 Zrotation Yrotation Xrotation
                      JOINT LeftHandPinky3
                      {
                        OFFSET 3.070974 0.0 -4e-06
                        CHANNELS 3 Zrotation Yrotation Xrotation
                        JOINT LeftHandPinky4
                        {
                          OFFSET 1.549672 1e-06 0.0
                          CHANNELS 3 Zrotation Yrotation Xrotation
                          JOINT LeftHandPinkyEnd
                          {
                            OFFSET 1.952123 0.0 0.0
                            CHANNELS 3 Zrotation Yrotation Xrotation
                          }
                        }
                      }
                    }
                  }
                }
              }
            }
          }
          JOINT RightShoulder
          {
            OFFSET 23.161716 5.296122 -1.380114
            CHANNELS 3 Zrotation Yrotation Xrotation
            JOINT RightArm
            {
              OFFSET -16.027195 -2e-06 1.1e-05
              CHANNELS 3 Zrotation Yrotation Xrotation
              JOINT RightForeArm
              {
                OFFSET -28.736639 4e-06 2e-06
                CHANNELS 3 Zrotation Yrotation Xrotation
                JOINT RightHand
                {
                  OFFSET -27.133619 6e-06 0.0
                  CHANNELS 3 Zrotation Yrotation Xrotation
                  JOINT RightHandThumb1
                  {
                    OFFSET -2.274328 -3.351035 -0.83067
                    CHANNELS 3 Zrotation Yrotation Xrotation
                    JOINT RightHandThumb2
                    {
                      OFFSET -4.703594 -3e-06 2e-06
                      CHANNELS 3 Zrotation Yrotation Xrotation
                      JOINT RightHandThumb3
                      {
                        OFFSET -2.794935 -4e-06 -3e-06
                        CHANNELS 3 Zrotation Yrotation Xrotation
                        JOINT RightHandThumbEnd
                        {
                          OFFSET -3.183852 4e-06 1e-06
                          CHANNELS 3 Zrotation Yrotation Xrotation
                        }
                      }
                    }
                  }
                  JOINT RightHandIndex1
                  {
                    OFFSET -3.253496 -2.33755 -0.127667
                    CHANNELS 3 Zrotation Yrotation Xrotation
                    JOINT RightHandIndex2
                    {
                      OFFSET -6.344434 0.0 0.0
                      CHANNELS 3 Zrotation Yrotation Xrotation
                      JOINT RightHandIndex3
                      {
                        OFFSET -3.654871 0.0 -8e-06
                        CHANNELS 3 Zrotation Yrotation Xrotation
                        JOINT RightHandIndex4
                        {
                          OFFSET -2.327586 -1e-06 0.0
                          CHANNELS 3 Zrotation Yrotation Xrotation
                          JOINT RightHandIndexEnd
                          {
                            OFFSET -2.770001 3e-06 8e-06
                            CHANNELS 3 Zrotation Yrotation Xrotation
                          }
                        }
                      }
                    }
                  }
                  JOINT RightHandMiddle1
                  {
                    OFFSET -3.168223 -0.944764 0.411762
                    CHANNELS 3 Zrotation Yrotation Xrotation
                    JOINT RightHandMiddle2
                    {
                      OFFSET -6.266691 -1e-06 -4e-06
                      CHANNELS 3 Zrotation Yrotation Xrotation
                      JOINT RightHandMiddle3
                      {
                        OFFSET -4.348901 0.0 0.0
                        CHANNELS 3 Zrotation Yrotation Xrotation
                        JOINT RightHandMiddle4
                        {
                          OFFSET -3.00024 2e-06 -4e-06
                          CHANNELS 3 Zrotation Yrotation Xrotation
                          JOINT RightHandMiddleEnd
                          {
                            OFFSET -2.321477 -4e-06 -4e-06
                            CHANNELS 3 Zrotation Yrotation Xrotation
                          }
                        }
                      }
                    }
                  }
                  JOINT RightHandRing1
                  {
                    OFFSET -2.885654 0.293261 -0.119232
                    CHANNELS 3 Zrotation Yrotation Xrotation
                    JOINT RightHandRing2
                    {
                      OFFSET -6.032835 -1e-06 -4e-06
                      CHANNELS 3 Zrotation Yrotation Xrotation
                      JOINT RightHandRing3
                      {
                        OFFSET -4.33881 0.0 -4e-06
                        CHANNELS 3 Zrotation Yrotation Xrotation
                        JOINT RightHandRing4
                        {
                          OFFSET -2.654903 -4e-06 -4e-06
                          CHANNELS 3 Zrotation Yrotation Xrotation
                          JOINT RightHandRingEnd
                          {
                            OFFSET -1.935122 0.0 4e-06
                            CHANNELS 3 Zrotation Yrotation Xrotation
                          }
                        }
                      }
                    }
                  }
                  JOINT RightHandPinky1
                  {
                    OFFSET -2.866241 1.503904 -0.60527
                    CHANNELS 3 Zrotation Yrotation Xrotation
                    JOINT RightHandPinky2
                    {
                      OFFSET -5.553177 -2e-06 0.0
                      CHANNELS 3 Zrotation Yrotation Xrotation
                      JOINT RightHandPinky3
                      {
                        OFFSET -3.062664 -1e-06 -4e-06
                        CHANNELS 3 Zrotation Yrotation Xrotation
                        JOINT RightHandPinky4
                        {
                          OFFSET -1.546529 2e-06 4e-06
                          CHANNELS 3 Zrotation Yrotation Xrotation
                          JOINT RightHandPinkyEnd
                          {
                            OFFSET -1.952341 0.0 -4e-06
                            CHANNELS 3 Zrotation Yrotation Xrotation
                          }
                        }
                      }
                    }
                  }
                }
              }
            }
          }
        }
      }
    }
    JOINT LeftLeg
    {
      OFFSET -8.443107 2.567604 10.043214
      CHANNELS 3 Zrotation Yrotation Xrotation
      JOINT LeftShin
      {
        OFFSET 43.229198 1e-06 -1e-06
        CHANNELS 3 Zrotation Yrotation Xrotation
        JOINT LeftFoot
        {
          OFFSET 42.298611 1e-06 1e-06
          CHANNELS 3 Zrotation Yrotation Xrotation
          JOINT LeftToeBase
          {
            OFFSET 14.165858 1e-06 0.0
            CHANNELS 3 Zrotation Yrotation Xrotation
            JOINT LeftToeEnd
            {
              OFFSET 6.7141 -0.234461 0.0
              CHANNELS 3 Zrotation Yrotation Xrotation
            }
          }
        }
      }
    }
    JOINT RightLeg
    {
      OFFSET -8.303923 2.592729 -10.047278
      CHANNELS 3 Zrotation Yrotation Xrotation
      JOINT RightShin
      {
        OFFSET -43.369682 0.0 1e-06
        CHANNELS 3 Zrotation Yrotation Xrotation
        JOINT RightFoot
        {
          OFFSET -42.260784 4e-06 2e-06
          CHANNELS 3 Zrotation Yrotation Xrotation
          JOINT RightToeBase
          {
            OFFSET -14.222245 -2e-06 -1e-06
            CHANNELS 3 Zrotation Yrotation Xrotation
            JOINT RightToeEnd
            {
              OFFSET -6.660062 0.232574 -2e-06
              CHANNELS 3 Zrotation Yrotation Xrotation
            }
          }
        }
      }
    }
  }
}
MOTION
Frames: 4
Frame Time: 0.03333333333333333
0.0 0.0 0.0 0.0 -0.0 0.0 -22.457838 49.054279 201.489426 90.85878 -44.340466 84.712059 20.757181 -0.727683 1.883475 -4.130291 0.493211 1.76656 18.579222 -2.015953 -0.808799 12.807603 2.772183 2.531085 -2.478493 -0.144977 1.283755 -27.907234 -1.45627 2.434441 5e-06 -0.0 -0.0 -0.229601 -0.023538 0.006741 -0.156958 -0.015044 0.017892 -0.087904 -0.044479 -0.006297 63.245102 -77.38652 -55.336601 69.963661 -21.862455 -34.102615 18.491699 0.157505 0.146688 50.239571 67.750061 51.532455 17.636633 -26.322733 52.411201 -19.466663 -14.395598 29.410395 -1e-06 -8.774821 -1e-06 15.713663 -18.362877 5.876301 -0.609776 -1.795653 -3.889329 -4.80709 -11.046818 -2.937851 4e-06 -20.976021 0.0 -5.01997 -25.033562 -4.031885 6e-06 -0.0 1e-06 -10.634537 -5.686972 -3.565589 10.573277 -17.922958 -3.1139 3e-06 -13.821218 2e-06 -0.501776 -31.181522 -4.02702 -11.219491 -59.623596 7.012331 -13.982717 -7.1502 -2.875043 13.772732 -8.401496 -3.218242 0.347734 -34.211559 0.771653 -0.963028 -17.733376 2.621018 -0.0 0.0 -0.0 -17.346424 -20.095224 -4.201784 21.757566 -1.638376 3.86643 1e-06 -6.338827 -0.0 -1.697589 -22.591751 -6.194009 -0.0 -5e-06 -2e-06 -153.128494 -67.749786 -24.912821 65.924362 -8.789768 -49.061935 14.70505 -0.925691 -0.258096 10.718492 47.122856 11.168415 22.182119 -20.375895 49.933323 -16.701815 -16.74353 28.476536 -4e-06 -12.690602 -1e-06 15.876459 -17.732979 3.049351 -0.105919 -1.513856 -4.275882 -5.039043 -5.612873 -2.953557 5e-06 -11.020524 -3e-06 -6.111298 -15.89533 -3.840475 1e-06 1e-06 1e-06 -10.283373 -5.680287 -4.341838 11.028296 -11.302409 -2.372633 -1.384268 -14.238582 -6.320123 -0.625438 -26.924191 -3.827603 -4.191343 -50.355705 -3.381675 -13.708528 -7.363477 -3.72094 18.141153 -14.052739 -3.242676 7e-06 -18.787271 -4e-06 -0.429712 -8.456043 2.555504 0.0 -1e-06 2e-06 -15.923539 -20.094484 -5.473584 30.419218 -7.190825 1.735925 2e-06 -8.162929 -1e-06 -1.861901 -22.861469 -6.167942 -1e-06 -3e-06 -2e-06 112.971046 -3.293312 -2.02257 125.893188 1.675832 0.961497 -50.160435 8.141795 -5.29659 -4.202965 1.401926 2.27938 -1.000001 -0.0 0.0 -13.812181 -1.340178 2.052531 64.902718 -1.9503 0.711576 -27.234255 18.574726 -8.700598 1.401002 0.256064 1.898043 -1.000002 -0.0 0.0 
0.0 0.0 0.0 0.0 -0.0 0.0 -22.430553 49.02071 204.392502 92.006119 -45.701656 84.907288 20.281599 -0.630339 1.521588 -4.359838 0.444858 1.255866 18.163612 -1.643357 -1.472446 12.409789 3.941498 2.691546 -2.488474 -0.416976 1.36655 -28.153513 -1.597662 2.713575 7e-06 0.0 -0.0 -0.228907 0.02737 -0.02764 -0.199716 0.01198 -0.039601 -0.124747 0.032186 -0.017525 65.613617 -76.950874 -57.475033 68.145706 -24.57217 -34.427933 20.518688 0.350797 0.165469 53.024471 67.555893 54.324619 17.636633 -26.322741 52.411201 -19.466665 -14.395602 29.410393 -1e-06 -8.774824 -0.0 15.796687 -18.322573 5.873236 -0.609776 -1.795652 -3.889328 -4.80709 -11.046816 -2.937849 2e-06 -20.976021 1e-06 -5.019972 -25.033562 -4.031881 6e-06 -0.0 -0.0 -10.634536 -5.686971 -3.565586 10.573275 -17.922955 -3.113901 3e-06 -13.821216 2e-06 -0.501777 -31.181511 -4.027017 -11.14341 -59.664566 6.946855 -13.982717 -7.150201 -2.875041 13.772731 -8.401493 -3.218241 0.347731 -34.211559 0.771657 -0.96303 -17.733376 2.621021 0.0 0.0 -0.0 -17.346422 -20.095221 -4.201779 21.757563 -1.638378 3.866428 1e-06 -6.338826 1e-06 -1.69759 -22.591751 -6.194008 0.0 -4e-06 -2e-06 -158.298447 -68.495079 -20.559866 70.049026 -10.241323 -48.848969 14.42825 -0.676497 -0.183355 11.784154 49.876537 12.392619 22.182121 -20.375891 49.933304 -16.701809 -16.743525 28.476524 -3e-06 -12.6906 -1e-06 15.770661 -17.801737 3.169605 -0.10592 -1.513857 -4.275879 -5.03904 -5.61287 -2.953556 4e-06 -11.020523 -3e-06 -6.111298 -15.89533 -3.84047 0.0 2e-06 1e-06 -10.283371 -5.680285 -4.341839 11.028291 -11.302409 -2.37263 -1.38427 -14.238582 -6.320119 -0.625442 -26.924194 -3.827601 -4.105241 -50.338596 -3.48743 -13.708524 -7.363477 -3.72094 18.141148 -14.052739 -3.242672 6e-06 -18.78727 -2e-06 -0.429713 -8.456046 2.555505 0.0 -0.0 0.0 -15.923534 -20.094482 -5.473585 30.419207 -7.190827 1.735929 1e-06 -8.162929 -0.0 -1.861904 -22.861473 -6.167942 -1e-06 -3e-06 -2e-06 114.888481 -1.135172 -1.848402 123.812477 1.697218 0.868285 -52.704563 7.015317 -5.760346 -4.47648 1.39551 2.269185 -0.999997 -0.0 -0.0 -13.63382 -2.729846 1.04694 64.299706 -2.252438 0.846507 -28.820076 17.929188 -9.010945 1.598165 0.233197 1.916577 -1.000003 -1e-06 1e-06 
0.0 0.0 0.0 0.0 -0.0 0.0 -22.471775 49.056801 207.159256 93.135628 -46.760529 85.2444 20.015398 -0.408384 1.189293 -4.519051 0.539172 0.820843 17.876484 -1.317371 -2.182898 11.997713 5.068944 2.993076 -2.461222 -0.953577 1.321851 -28.185461 -1.524116 2.831652 7e-06 0.0 -0.0 -0.217175 0.053041 -0.052129 -0.210845 0.032209 -0.073549 -0.127529 0.06561 -0.03674 67.696014 -76.598732 -59.579987 66.491325 -26.742378 -34.750973 22.612545 0.547656 0.276301 53.27515 66.939041 54.312729 17.636627 -26.322733 52.411213 -19.466663 -14.395598 29.410395 1e-06 -8.77482 -1e-06 15.664805 -18.34276 5.775992 -0.609776 -1.795653 -3.889328 -4.807089 -11.046812 -2.937851 5e-06 -20.976017 -2e-06 -5.019964 -25.033556 -4.031885 6e-06 0.0 -1e-06 -10.634534 -5.686968 -3.565589 10.573277 -17.922949 -3.113902 5e-06 -13.82121 1e-06 -0.501772 -31.181505 -4.027017 -11.205499 -59.365944 6.610115 -13.982712 -7.150198 -2.875044 13.77273 -8.401493 -3.218243 0.34774 -34.211544 0.771653 -0.963026 -17.73337 2.621018 -0.0 0.0 1e-06 -17.346415 -20.095215 -4.201787 21.757555 -1.638376 3.866428 2e-06 -6.338825 0.0 -1.697585 -22.591742 -6.194007 0.0 -3e-06 -2e-06 -162.434204 -69.172554 -16.967535 73.374878 -11.060847 -48.065304 13.819673 -0.52328 -0.125169 12.458191 52.253223 12.997881 22.182119 -20.375898 49.933334 -16.701813 -16.743525 28.476536 -3e-06 -12.690601 -2e-06 15.62339 -17.905178 3.339261 -0.105919 -1.513855 -4.275881 -5.039041 -5.61287 -2.953556 3e-06 -11.020525 -3e-06 -6.111297 -15.895334 -3.840469 1e-06 1e-06 1e-06 -10.283373 -5.68029 -4.341839 11.028293 -11.302407 -2.372631 -1.384268 -14.238581 -6.320124 -0.625438 -26.924194 -3.827605 -4.127872 -50.200665 -3.516554 -13.708526 -7.363475 -3.72094 18.141148 -14.052739 -3.242675 7e-06 -18.78727 -2e-06 -0.429712 -8.456044 2.555505 0.0 0.0 3e-06 -15.923539 -20.094486 -5.473586 30.41921 -7.190823 1.73593 2e-06 -8.162927 -1e-06 -1.861902 -22.861469 -6.167942 -1e-06 -2e-06 -2e-06 117.151924 0.966051 -1.539392 120.953842 1.705889 0.762317 -53.829155 6.727351 -6.283766 -5.020708 1.426097 2.277666 -0.999997 0.0 -1e-06 -14.166439 -4.158912 0.135112 65.566154 -2.529878 0.916851 -31.10207 16.984898 -9.28105 1.279633 0.26716 1.914521 -1.000001 0.0 -0.0 
0.0 0.0 0.0 0.0 -0.0 0.0 -22.495441 49.337799 209.692261 94.134872 -47.510689 85.271675 19.902618 0.013986 1.01973 -4.675865 0.552073 0.428991 17.77523 -0.934445 -2.539554 11.735535 5.546306 3.089475 -2.472143 -1.127151 1.456689 -28.168259 -1.724413 2.951663 7e-06 -0.0 -0.0 -0.223014 0.092388 -0.079261 -0.243622 0.067079 -0.108873 -0.164872 0.11254 -0.056692 70.585983 -76.12265 -62.519775 64.437828 -28.285297 -35.435551 25.541666 0.793355 0.387583 52.29475 65.603172 52.537178 17.636633 -26.322733 52.411205 -19.466663 -14.395598 29.410393 -1e-06 -8.774821 -1e-06 15.684768 -18.383476 5.670197 -0.609778 -1.795655 -3.889327 -4.807087 -11.046813 -2.937852 5e-06 -20.976019 -0.0 -5.019969 -25.03356 -4.031882 6e-06 -0.0 0.0 -10.634534 -5.686972 -3.565588 10.573274 -17.922955 -3.113902 4e-06 -13.821211 2e-06 -0.501775 -31.181505 -4.027018 -10.984897 -59.112331 6.169061 -13.982714 -7.150198 -2.875044 13.77273 -8.401495 -3.21824 0.347738 -34.211555 0.771652 -0.963027 -17.73337 2.621018 0.0 -0.0 -0.0 -17.346418 -20.095221 -4.201784 21.757557 -1.638374 3.866428 1e-06 -6.338827 0.0 -1.697586 -22.591745 -6.194009 -0.0 -4e-06 -2e-06 -165.646988 -69.710747 -14.026617 76.022392 -11.584508 -47.245113 13.326385 -0.255346 -0.042934 13.555091 54.250263 14.208973 22.182116 -20.375895 49.933315 -16.701811 -16.743528 28.476528 -4e-06 -12.6906 -2e-06 15.414497 -17.884974 3.429443 -0.10592 -1.513856 -4.275881 -5.03904 -5.61287 -2.953557 4e-06 -11.020524 -3e-06 -6.111297 -15.895328 -3.840471 -0.0 -1e-06 1e-06 -10.283371 -5.680287 -4.341839 11.028293 -11.302404 -2.372632 -1.384268 -14.238579 -6.320122 -0.62544 -26.924187 -3.827599 -4.102145 -49.957191 -3.596708 -13.708524 -7.363476 -3.72094 18.141146 -14.052736 -3.242674 8e-06 -18.787266 -4e-06 -0.429711 -8.456043 2.555503 -0.0 2e-06 1e-06 -15.923534 -20.094481 -5.473585 30.419207 -7.190823 1.735926 1e-06 -8.162926 -0.0 -1.861902 -22.861465 -6.167942 0.0 -3e-06 -2e-06 119.695831 2.497556 -1.544308 117.832375 1.76247 0.637295 -54.476589 6.250896 -7.086393 -5.358429 1.447504 2.277713 -0.999997 -0.0 -0.0 -15.687234 -5.4253 -0.38564 68.498749 -2.830215 0.903836 -34.10067 16.130465 -9.161325 1.131994 0.21291 1.939575 -1.000002 -0.0 -1e-06 
